<svg version="1.1" id="Layer_1" xmlns="http://www.w3.org/2000/svg" xmlns:xlink="http://www.w3.org/1999/xlink" x="0px" y="0px"
	 width="100%" viewBox="0 0 2234 547" enable-background="new 0 0 2234 547" xml:space="preserve">
<path fill="#FFFFFF" opacity="1.000000" stroke="none" 
	d="
M1484.000000,548.000000 
	C989.333313,548.000000 495.166656,548.000000 1.000000,548.000000 
	C1.000000,365.666656 1.000000,183.333328 1.000000,1.000000 
	C745.666687,1.000000 1490.333374,1.000000 2235.000000,1.000000 
	C2235.000000,183.333328 2235.000000,365.666656 2235.000000,548.000000 
	C1984.833374,548.000000 1734.666626,548.000000 1484.000000,548.000000 
M86.210663,112.329956 
	C86.140457,114.155975 86.009003,115.981987 86.008820,117.808014 
	C85.998878,215.464584 85.987488,313.121155 86.043839,410.777710 
	C86.046196,414.864624 86.211952,419.059967 87.111755,423.020721 
	C94.567184,455.838196 120.419662,476.796875 152.923950,476.878021 
	C274.910583,477.182556 396.898468,477.011261 518.885864,476.954895 
	C523.305969,476.952850 527.818359,476.736298 532.129517,475.850006 
	C549.529480,472.272827 563.980347,463.618988 574.287964,449.049377 
	C580.987000,439.580322 585.928406,429.027283 585.940735,417.117279 
	C586.044800,316.961090 586.003601,216.804703 585.966614,116.648392 
	C585.966064,115.106598 585.464844,113.564987 585.036621,111.223701 
	C585.684326,109.584541 586.972046,107.903954 586.869141,106.313385 
	C586.418335,99.347862 582.636169,94.117157 577.335510,89.873344 
	C571.266785,85.014534 568.832520,85.180038 563.236328,90.230469 
	C554.321655,98.275642 545.308472,106.211929 536.313049,114.167183 
	C522.151672,126.691071 507.956757,139.177017 493.803772,151.710327 
	C487.270966,157.495499 480.839111,163.394806 474.299133,169.171722 
	C460.504303,181.357040 446.651733,193.476959 432.856659,205.661972 
	C426.316528,211.438812 419.887604,217.341568 413.349335,223.120590 
	C399.433685,235.420425 385.473846,247.670242 371.543213,259.953156 
	C362.786255,267.674316 354.361969,275.817505 345.185883,283.001709 
	C339.718781,287.282074 333.284241,287.492615 327.653839,282.964508 
	C320.863495,277.503571 314.575806,271.416199 308.089844,265.578613 
	C301.109039,259.295654 294.185791,252.948456 287.175171,246.699127 
	C272.318420,233.455643 257.395355,220.286499 242.551453,207.028702 
	C235.050568,200.329254 227.717743,193.441589 220.212357,186.747299 
	C205.607773,173.720993 190.902252,160.807831 176.304047,147.774429 
	C168.553680,140.854828 161.012314,133.700836 153.249893,126.795090 
	C139.249924,114.340172 124.874634,102.288704 111.262848,89.426620 
	C106.941811,85.343559 103.829666,84.477394 99.314629,87.936897 
	C98.688843,88.416389 97.846382,88.602066 97.140244,88.989410 
	C89.159859,93.366936 83.741341,103.957680 86.210663,112.329956 
M800.000000,311.500000 
	C800.000000,339.255676 800.000000,367.011353 800.000000,394.679016 
	C820.006714,394.679016 839.404175,394.679016 859.000000,394.679016 
	C859.000000,392.542725 859.000000,390.726288 859.000000,388.909851 
	C859.000000,343.753174 858.952759,298.596375 859.085144,253.440094 
	C859.096313,249.627197 859.786011,245.632889 861.054382,242.038254 
	C867.063599,225.007568 888.956848,217.676361 904.630310,231.115540 
	C912.143494,237.557755 914.936462,246.033676 914.956970,255.496185 
	C915.053650,300.152740 915.000000,344.809662 915.000000,389.466431 
	C915.000000,391.231323 915.000000,392.996185 915.000000,394.684509 
	C934.662170,394.684509 953.726257,394.684509 973.000000,394.684509 
	C973.000000,392.555359 973.000000,390.740387 973.000000,388.925415 
	C973.000000,344.601898 973.120544,300.277832 972.923157,255.955200 
	C972.867310,243.403976 971.123718,231.157578 966.200317,219.246231 
	C956.457886,195.675720 939.497681,180.000168 916.059692,171.035507 
	C902.537842,165.863617 888.527710,164.902878 874.112000,166.880554 
	C860.750732,168.713577 848.672546,172.972198 838.507507,182.002991 
	C835.180725,184.958618 831.973389,188.048737 829.377869,190.458527 
	C824.436646,186.150146 820.183777,181.438477 815.031555,178.125214 
	C793.982361,164.588974 771.230469,162.962860 747.596008,169.811310 
	C725.973938,176.076645 709.252075,188.922501 698.272400,208.552841 
	C691.359497,220.912155 686.293518,234.360855 686.163330,248.613434 
	C685.731140,295.932343 685.997803,343.257660 686.010559,390.580505 
	C686.010925,392.007538 686.168091,393.434540 686.239319,394.644104 
	C705.743774,394.644104 724.808777,394.644104 744.000000,394.644104 
	C744.000000,348.305695 743.959900,302.322968 744.072937,256.340637 
	C744.082458,252.486969 744.934021,248.597076 745.718262,244.790741 
	C748.155396,232.962265 763.264465,221.130478 777.943481,224.797440 
	C790.068298,227.826340 800.353821,240.043762 800.126160,250.516022 
	C799.691711,270.502136 800.000000,290.504425 800.000000,311.500000 
M1503.000000,130.500000 
	C1503.000000,113.741234 1503.000000,96.982475 1503.000000,80.324493 
	C1483.320068,80.324493 1464.255615,80.324493 1444.000000,80.324493 
	C1444.000000,105.052414 1444.000000,129.455933 1444.000000,153.859451 
	C1444.000000,193.351273 1443.780640,232.845062 1444.137451,272.333649 
	C1444.240723,283.768616 1445.385010,295.282196 1447.117188,306.596680 
	C1451.051270,332.292053 1463.854980,353.251678 1484.021851,369.320404 
	C1501.113281,382.938782 1520.416504,392.479553 1542.641113,393.873505 
	C1555.428467,394.675537 1568.519287,395.429108 1581.100586,393.616455 
	C1600.396118,390.836487 1617.690063,382.520294 1632.890869,369.784790 
	C1649.946655,355.495056 1662.598633,338.314697 1669.286621,317.133759 
	C1674.235840,301.459412 1676.004883,285.407104 1674.210938,268.791840 
	C1672.693115,254.732651 1669.540649,241.353195 1663.264893,228.779114 
	C1655.479004,213.179550 1644.500854,200.081497 1630.794067,189.314178 
	C1611.643677,174.270615 1589.638550,167.029922 1565.506226,166.086716 
	C1559.276001,165.843201 1552.800293,165.796432 1546.798706,167.202118 
	C1537.615356,169.353058 1528.459961,172.194351 1519.840210,175.986893 
	C1513.791260,178.648285 1508.653809,183.381500 1503.000000,187.264664 
	C1503.000000,168.752594 1503.000000,150.126297 1503.000000,130.500000 
M1159.379028,175.049423 
	C1156.665771,174.028046 1153.999634,172.851990 1151.231812,172.010040 
	C1131.231323,165.926010 1111.027588,164.357513 1090.250366,167.870026 
	C1067.530396,171.710938 1048.349121,182.023300 1031.917480,197.694565 
	C1021.247131,207.871063 1012.966736,219.760300 1006.785767,233.346985 
	C997.029724,254.791901 995.137329,277.161835 998.228943,299.946716 
	C1000.599365,317.415649 1007.519226,333.411682 1017.919983,347.889862 
	C1028.695679,362.889984 1042.066528,374.715271 1058.486572,383.100677 
	C1075.193359,391.632446 1092.933960,395.142365 1111.696777,395.156189 
	C1126.075317,395.166748 1139.483154,392.234985 1151.978027,385.403748 
	C1157.557861,382.353119 1162.635986,378.384705 1168.243652,374.630707 
	C1168.243652,381.374725 1168.243652,388.109497 1168.243652,394.657562 
	C1188.058838,394.657562 1207.452393,394.657562 1227.000000,394.657562 
	C1227.000000,373.504303 1227.129272,352.692139 1226.965698,331.882263 
	C1226.781616,308.471710 1226.617676,285.054291 1225.880371,261.657654 
	C1225.510254,249.908218 1221.409912,238.851593 1216.591553,228.224945 
	C1209.770264,213.181015 1199.430298,200.682693 1186.208374,190.994965 
	C1178.068237,185.030807 1168.785889,180.625961 1159.379028,175.049423 
M1703.003540,325.339752 
	C1703.337769,326.416840 1703.676270,327.492645 1704.005493,328.571289 
	C1713.993774,361.290863 1734.983398,383.709259 1767.450195,394.509125 
	C1776.251709,397.436859 1785.979126,397.577332 1795.279419,399.010712 
	C1804.486572,400.429718 1813.205933,398.842773 1821.669922,395.074341 
	C1831.234863,390.815674 1837.826904,383.593445 1843.208008,374.628479 
	C1843.208008,381.352997 1843.208008,388.077515 1843.208008,394.673340 
	C1862.689087,394.673340 1881.751221,394.673340 1900.682617,394.673340 
	C1900.682617,318.633911 1900.682617,242.921509 1900.682617,167.331238 
	C1881.301514,167.331238 1862.239380,167.331238 1843.000000,167.331238 
	C1843.000000,169.480469 1843.000000,171.299332 1843.000000,173.118195 
	C1843.000000,212.103073 1843.072632,251.088272 1842.910034,290.072479 
	C1842.889282,295.066803 1842.136230,300.183472 1840.881470,305.025543 
	C1835.359863,326.334259 1814.430176,344.707794 1792.849609,340.077576 
	C1782.845459,337.931152 1774.385742,333.834259 1767.892944,325.646210 
	C1759.905884,315.573456 1757.038574,304.008484 1757.020874,291.525513 
	C1756.964478,251.874298 1757.000000,212.222946 1757.000000,172.571655 
	C1757.000000,170.803329 1757.000000,169.035004 1757.000000,167.298386 
	C1737.368042,167.298386 1718.306396,167.298386 1699.141724,167.298386 
	C1699.083008,168.234818 1699.003296,168.880997 1699.007812,169.526596 
	C1699.334229,215.932114 1699.575684,262.338684 1700.126709,308.741577 
	C1700.189331,314.001434 1701.995728,319.240570 1703.003540,325.339752 
M1981.485596,395.000000 
	C1984.986206,394.999969 1988.507080,395.220795 1991.978394,394.901428 
	C1993.578491,394.754211 1995.718872,393.976044 1996.530518,392.760376 
	C2005.423462,379.439484 2014.089600,365.967377 2022.844116,352.553772 
	C2028.232178,344.298279 2033.666504,336.072937 2039.194946,327.659210 
	C2040.021606,328.603180 2040.524292,329.054230 2040.879883,329.600922 
	C2054.372559,350.344666 2067.935791,371.043884 2081.225342,391.917206 
	C2082.854004,394.475372 2084.468994,395.046478 2087.128418,395.037933 
	C2108.292725,394.969879 2129.457275,394.999969 2150.621582,394.999939 
	C2151.686035,394.999939 2152.750488,394.999908 2154.671143,394.999908 
	C2151.681641,390.596497 2149.326172,386.981476 2146.825684,383.469452 
	C2135.911621,368.138489 2124.954834,352.838074 2114.015137,337.525330 
	C2101.004395,319.313812 2088.091553,301.031036 2074.892090,282.957336 
	C2072.674805,279.921082 2073.622559,278.351532 2075.477783,275.919434 
	C2083.754639,265.066833 2091.849365,254.074921 2099.982422,243.112885 
	C2113.918457,224.329193 2127.836914,205.532730 2141.755371,186.736038 
	C2145.941650,181.082504 2150.102051,175.409897 2154.823242,169.001038 
	C2130.879150,169.001038 2108.084961,168.941345 2085.292725,169.141022 
	C2083.839111,169.153748 2082.006104,170.900024 2081.018799,172.308777 
	C2067.162354,192.079895 2053.422607,211.932632 2039.548706,231.917770 
	C2038.827026,231.243744 2037.990356,230.691940 2037.455078,229.928650 
	C2023.956909,210.684662 2010.421265,191.465897 1997.105591,172.096008 
	C1995.448608,169.685638 1993.800415,168.948242 1991.095581,168.957947 
	C1969.931396,169.033920 1948.766968,168.993652 1927.602539,169.016861 
	C1926.411255,169.018173 1925.220215,169.262848 1923.637207,169.437485 
	C1925.010620,171.393387 1925.987793,172.857849 1927.037354,174.268494 
	C1937.031860,187.700562 1947.043091,201.120255 1957.040649,214.549988 
	C1972.563477,235.401733 1988.116211,256.231445 2003.490112,277.192200 
	C2004.264893,278.248596 2004.113770,280.897614 2003.312134,282.057770 
	C1993.821167,295.795807 1984.154297,309.412964 1974.472656,323.018463 
	C1965.256104,335.970245 1955.926147,348.841370 1946.723755,361.803070 
	C1939.071411,372.581268 1931.531982,383.439545 1923.425293,395.000000 
	C1942.992310,395.000000 1961.741577,395.000000 1981.485596,395.000000 
M1356.000000,374.499847 
	C1356.000000,381.263000 1356.000000,388.026154 1356.000000,394.676880 
	C1376.013916,394.676880 1395.409912,394.676880 1414.691895,394.676880 
	C1414.691895,289.978333 1414.691895,185.603165 1414.691895,81.322998 
	C1394.986328,81.322998 1375.590210,81.322998 1356.000000,81.322998 
	C1356.000000,178.930542 1356.000000,276.215210 1356.000000,374.499847 
M261.052277,114.555641 
	C253.851242,108.020523 246.684708,101.446877 239.440689,94.959755 
	C229.785034,86.312973 218.382080,81.525978 205.496353,81.095482 
	C192.513504,80.661743 179.504852,80.992424 166.507538,81.011124 
	C165.129684,81.013100 163.752045,81.169205 161.242249,81.323326 
	C168.871246,88.030151 175.695419,93.951752 182.434097,99.969070 
	C198.519669,114.332672 214.560059,128.746841 230.628265,143.129898 
	C239.946976,151.471268 249.291168,159.784149 258.611511,168.123703 
	C274.558472,182.392548 290.515564,196.650162 306.429779,210.955444 
	C316.438110,219.951950 326.376038,229.026749 336.438904,238.151062 
	C343.326263,231.924759 349.901642,225.938873 356.524475,220.005966 
	C362.280304,214.849701 368.074280,209.735718 373.878693,204.634079 
	C387.453369,192.702988 401.076996,180.827377 414.615540,168.855484 
	C421.775055,162.524506 428.734161,155.966858 435.896393,149.639038 
	C449.315643,137.783066 462.806061,126.007523 476.288116,114.222809 
	C483.826569,107.633392 491.456146,101.147545 498.951813,94.510139 
	C503.666077,90.335625 508.208313,85.966827 513.566711,81.000275 
	C496.552368,81.000275 480.749939,80.992546 464.947571,81.019051 
	C463.977600,81.020676 463.002014,81.260689 462.039307,81.443810 
	C447.262512,84.254501 435.730286,92.700745 424.897186,102.533020 
	C413.453308,112.919655 401.738495,123.007126 390.213623,133.305359 
	C376.828156,145.266159 363.549347,157.346405 350.163055,169.306274 
	C345.554688,173.423569 340.762268,177.334839 336.225220,181.194519 
	C332.672150,178.191483 329.460327,175.625488 326.413239,172.876923 
	C308.793884,156.983688 291.232666,141.026047 273.604889,125.142242 
	C269.716766,121.638771 265.639404,118.345306 261.052277,114.555641 
M1321.000000,226.500000 
	C1321.000000,207.744965 1321.000000,188.989929 1321.000000,170.314575 
	C1301.000488,170.314575 1281.606079,170.314575 1262.301758,170.314575 
	C1262.301758,245.339508 1262.301758,320.049530 1262.301758,394.685486 
	C1281.999390,394.685486 1301.393799,394.685486 1321.000000,394.685486 
	C1321.000000,338.747528 1321.000000,283.123749 1321.000000,226.500000 
M1257.000244,116.404053 
	C1257.331421,117.821747 1257.785034,119.223206 1257.975708,120.659569 
	C1260.947510,143.047241 1281.645508,152.694702 1299.687500,148.642609 
	C1317.583130,144.623367 1328.619751,126.396446 1325.129883,109.109283 
	C1321.167358,89.481995 1302.515747,78.473404 1284.044922,82.595390 
	C1266.310181,86.553062 1258.927124,98.275803 1257.000244,116.404053 
z"/>
<path fill="#323232" opacity="1.000000" stroke="none" 
	d="
M585.197266,112.023293 
	C585.464844,113.564987 585.966064,115.106598 585.966614,116.648392 
	C586.003601,216.804703 586.044800,316.961090 585.940735,417.117279 
	C585.928406,429.027283 580.987000,439.580322 574.287964,449.049377 
	C563.980347,463.618988 549.529480,472.272827 532.129517,475.850006 
	C527.818359,476.736298 523.305969,476.952850 518.885864,476.954895 
	C396.898468,477.011261 274.910583,477.182556 152.923950,476.878021 
	C120.419662,476.796875 94.567184,455.838196 87.111755,423.020721 
	C86.211952,419.059967 86.046196,414.864624 86.043839,410.777710 
	C85.987488,313.121155 85.998878,215.464584 86.008820,117.808014 
	C86.009003,115.981987 86.140457,114.155975 86.882812,112.341705 
	C89.696815,121.819244 94.375359,129.995514 101.281784,136.620422 
	C108.563202,143.605026 116.497757,149.904724 124.019417,156.645966 
	C125.672310,158.127380 126.787476,160.208771 128.082733,162.479492 
	C128.010117,244.417130 128.144882,325.889618 127.874046,407.360779 
	C127.823944,422.432129 139.239517,435.091248 155.501877,435.072998 
	C275.794037,434.938141 396.086395,434.954498 516.378601,435.051910 
	C533.277588,435.065582 545.027466,424.244019 545.018127,406.420807 
	C544.976379,326.947937 545.000854,247.475037 544.993652,168.002151 
	C544.993530,166.339340 544.899719,164.676544 544.920105,162.666870 
	C549.915344,157.470230 554.521118,152.234451 559.829712,147.849442 
	C571.570679,138.151001 580.927002,126.932396 585.197266,112.023293 
z"/>
<path fill="#323232" opacity="1.000000" stroke="none" 
	d="
M800.000000,311.000000 
	C800.000000,290.504425 799.691711,270.502136 800.126160,250.516022 
	C800.353821,240.043762 790.068298,227.826340 777.943481,224.797440 
	C763.264465,221.130478 748.155396,232.962265 745.718262,244.790741 
	C744.934021,248.597076 744.082458,252.486969 744.072937,256.340637 
	C743.959900,302.322968 744.000000,348.305695 744.000000,394.644104 
	C724.808777,394.644104 705.743774,394.644104 686.239319,394.644104 
	C686.168091,393.434540 686.010925,392.007538 686.010559,390.580505 
	C685.997803,343.257660 685.731140,295.932343 686.163330,248.613434 
	C686.293518,234.360855 691.359497,220.912155 698.272400,208.552841 
	C709.252075,188.922501 725.973938,176.076645 747.596008,169.811310 
	C771.230469,162.962860 793.982361,164.588974 815.031555,178.125214 
	C820.183777,181.438477 824.436646,186.150146 829.377869,190.458527 
	C831.973389,188.048737 835.180725,184.958618 838.507507,182.002991 
	C848.672546,172.972198 860.750732,168.713577 874.112000,166.880554 
	C888.527710,164.902878 902.537842,165.863617 916.059692,171.035507 
	C939.497681,180.000168 956.457886,195.675720 966.200317,219.246231 
	C971.123718,231.157578 972.867310,243.403976 972.923157,255.955200 
	C973.120544,300.277832 973.000000,344.601898 973.000000,388.925415 
	C973.000000,390.740387 973.000000,392.555359 973.000000,394.684509 
	C953.726257,394.684509 934.662170,394.684509 915.000000,394.684509 
	C915.000000,392.996185 915.000000,391.231323 915.000000,389.466431 
	C915.000000,344.809662 915.053650,300.152740 914.956970,255.496185 
	C914.936462,246.033676 912.143494,237.557755 904.630310,231.115540 
	C888.956848,217.676361 867.063599,225.007568 861.054382,242.038254 
	C859.786011,245.632889 859.096313,249.627197 859.085144,253.440094 
	C858.952759,298.596375 859.000000,343.753174 859.000000,388.909851 
	C859.000000,390.726288 859.000000,392.542725 859.000000,394.679016 
	C839.404175,394.679016 820.006714,394.679016 800.000000,394.679016 
	C800.000000,367.011353 800.000000,339.255676 800.000000,311.000000 
z"/>
<path fill="#323232" opacity="1.000000" stroke="none" 
	d="
M1503.000000,131.000000 
	C1503.000000,150.126297 1503.000000,168.752594 1503.000000,187.264664 
	C1508.653809,183.381500 1513.791260,178.648285 1519.840210,175.986893 
	C1528.459961,172.194351 1537.615356,169.353058 1546.798706,167.202118 
	C1552.800293,165.796432 1559.276001,165.843201 1565.506226,166.086716 
	C1589.638550,167.029922 1611.643677,174.270615 1630.794067,189.314178 
	C1644.500854,200.081497 1655.479004,213.179550 1663.264893,228.779114 
	C1669.540649,241.353195 1672.693115,254.732651 1674.210938,268.791840 
	C1676.004883,285.407104 1674.235840,301.459412 1669.286621,317.133759 
	C1662.598633,338.314697 1649.946655,355.495056 1632.890869,369.784790 
	C1617.690063,382.520294 1600.396118,390.836487 1581.100586,393.616455 
	C1568.519287,395.429108 1555.428467,394.675537 1542.641113,393.873505 
	C1520.416504,392.479553 1501.113281,382.938782 1484.021851,369.320404 
	C1463.854980,353.251678 1451.051270,332.292053 1447.117188,306.596680 
	C1445.385010,295.282196 1444.240723,283.768616 1444.137451,272.333649 
	C1443.780640,232.845062 1444.000000,193.351273 1444.000000,153.859451 
	C1444.000000,129.455933 1444.000000,105.052414 1444.000000,80.324493 
	C1464.255615,80.324493 1483.320068,80.324493 1503.000000,80.324493 
	C1503.000000,96.982475 1503.000000,113.741234 1503.000000,131.000000 
M1612.963623,261.846008 
	C1612.252563,260.391541 1611.531738,258.941803 1610.832153,257.481873 
	C1600.946777,236.852890 1584.125244,226.115753 1561.772339,224.170563 
	C1553.879761,223.483734 1546.126099,225.613770 1538.544312,228.654633 
	C1516.620239,237.447937 1503.452637,258.612640 1503.063354,280.512970 
	C1502.833496,293.446564 1507.344727,305.100708 1515.115845,315.226074 
	C1524.781860,327.820435 1537.875732,335.353699 1553.651489,336.858765 
	C1571.900879,338.599854 1587.732666,332.787750 1600.416504,319.113861 
	C1615.627930,302.715302 1619.499390,283.861633 1612.963623,261.846008 
z"/>
<path fill="#323232" opacity="1.000000" stroke="none" 
	d="
M1159.697754,175.285202 
	C1168.785889,180.625961 1178.068237,185.030807 1186.208374,190.994965 
	C1199.430298,200.682693 1209.770264,213.181015 1216.591553,228.224945 
	C1221.409912,238.851593 1225.510254,249.908218 1225.880371,261.657654 
	C1226.617676,285.054291 1226.781616,308.471710 1226.965698,331.882263 
	C1227.129272,352.692139 1227.000000,373.504303 1227.000000,394.657562 
	C1207.452393,394.657562 1188.058838,394.657562 1168.243652,394.657562 
	C1168.243652,388.109497 1168.243652,381.374725 1168.243652,374.630707 
	C1162.635986,378.384705 1157.557861,382.353119 1151.978027,385.403748 
	C1139.483154,392.234985 1126.075317,395.166748 1111.696777,395.156189 
	C1092.933960,395.142365 1075.193359,391.632446 1058.486572,383.100677 
	C1042.066528,374.715271 1028.695679,362.889984 1017.919983,347.889862 
	C1007.519226,333.411682 1000.599365,317.415649 998.228943,299.946716 
	C995.137329,277.161835 997.029724,254.791901 1006.785767,233.346985 
	C1012.966736,219.760300 1021.247131,207.871063 1031.917480,197.694565 
	C1048.349121,182.023300 1067.530396,171.710938 1090.250366,167.870026 
	C1111.027588,164.357513 1131.231323,165.926010 1151.231812,172.010040 
	C1153.999634,172.851990 1156.665771,174.028046 1159.697754,175.285202 
M1155.570435,316.936096 
	C1155.739624,316.479004 1155.804077,315.938171 1156.093140,315.576904 
	C1165.882446,303.337860 1170.161743,289.634735 1168.073364,273.875763 
	C1166.078613,258.824615 1159.449707,246.622086 1147.636353,237.105881 
	C1127.135986,220.591675 1102.488770,219.633362 1081.579834,233.371979 
	C1054.662842,251.058273 1047.550415,285.367462 1065.597168,311.893311 
	C1076.612183,328.083679 1092.354004,336.920502 1112.348755,336.976807 
	C1129.539917,337.025208 1143.410034,329.625549 1155.570435,316.936096 
z"/>
<path fill="#323232" opacity="1.000000" stroke="none" 
	d="
M1702.998535,324.914520 
	C1701.995728,319.240570 1700.189331,314.001434 1700.126709,308.741577 
	C1699.575684,262.338684 1699.334229,215.932114 1699.007812,169.526596 
	C1699.003296,168.880997 1699.083008,168.234818 1699.141724,167.298386 
	C1718.306396,167.298386 1737.368042,167.298386 1757.000000,167.298386 
	C1757.000000,169.035004 1757.000000,170.803329 1757.000000,172.571655 
	C1757.000000,212.222946 1756.964478,251.874298 1757.020874,291.525513 
	C1757.038574,304.008484 1759.905884,315.573456 1767.892944,325.646210 
	C1774.385742,333.834259 1782.845459,337.931152 1792.849609,340.077576 
	C1814.430176,344.707794 1835.359863,326.334259 1840.881470,305.025543 
	C1842.136230,300.183472 1842.889282,295.066803 1842.910034,290.072479 
	C1843.072632,251.088272 1843.000000,212.103073 1843.000000,173.118195 
	C1843.000000,171.299332 1843.000000,169.480469 1843.000000,167.331238 
	C1862.239380,167.331238 1881.301514,167.331238 1900.682617,167.331238 
	C1900.682617,242.921509 1900.682617,318.633911 1900.682617,394.673340 
	C1881.751221,394.673340 1862.689087,394.673340 1843.208008,394.673340 
	C1843.208008,388.077515 1843.208008,381.352997 1843.208008,374.628479 
	C1837.826904,383.593445 1831.234863,390.815674 1821.669922,395.074341 
	C1813.205933,398.842773 1804.486572,400.429718 1795.279419,399.010712 
	C1785.979126,397.577332 1776.251709,397.436859 1767.450195,394.509125 
	C1734.983398,383.709259 1713.993774,361.290863 1704.005493,328.571289 
	C1703.676270,327.492645 1703.337769,326.416840 1702.998535,324.914520 
z"/>
<path fill="#323232" opacity="1.000000" stroke="none" 
	d="
M1980.988281,395.000000 
	C1961.741577,395.000000 1942.992310,395.000000 1923.425293,395.000000 
	C1931.531982,383.439545 1939.071411,372.581268 1946.723755,361.803070 
	C1955.926147,348.841370 1965.256104,335.970245 1974.472656,323.018463 
	C1984.154297,309.412964 1993.821167,295.795807 2003.312134,282.057770 
	C2004.113770,280.897614 2004.264893,278.248596 2003.490112,277.192200 
	C1988.116211,256.231445 1972.563477,235.401733 1957.040649,214.549988 
	C1947.043091,201.120255 1937.031860,187.700562 1927.037354,174.268494 
	C1925.987793,172.857849 1925.010620,171.393387 1923.637207,169.437485 
	C1925.220215,169.262848 1926.411255,169.018173 1927.602539,169.016861 
	C1948.766968,168.993652 1969.931396,169.033920 1991.095581,168.957947 
	C1993.800415,168.948242 1995.448608,169.685638 1997.105591,172.096008 
	C2010.421265,191.465897 2023.956909,210.684662 2037.455078,229.928650 
	C2037.990356,230.691940 2038.827026,231.243744 2039.548706,231.917770 
	C2053.422607,211.932632 2067.162354,192.079895 2081.018799,172.308777 
	C2082.006104,170.900024 2083.839111,169.153748 2085.292725,169.141022 
	C2108.084961,168.941345 2130.879150,169.001038 2154.823242,169.001038 
	C2150.102051,175.409897 2145.941650,181.082504 2141.755371,186.736038 
	C2127.836914,205.532730 2113.918457,224.329193 2099.982422,243.112885 
	C2091.849365,254.074921 2083.754639,265.066833 2075.477783,275.919434 
	C2073.622559,278.351532 2072.674805,279.921082 2074.892090,282.957336 
	C2088.091553,301.031036 2101.004395,319.313812 2114.015137,337.525330 
	C2124.954834,352.838074 2135.911621,368.138489 2146.825684,383.469452 
	C2149.326172,386.981476 2151.681641,390.596497 2154.671143,394.999908 
	C2152.750488,394.999908 2151.686035,394.999939 2150.621582,394.999939 
	C2129.457275,394.999969 2108.292725,394.969879 2087.128418,395.037933 
	C2084.468994,395.046478 2082.854004,394.475372 2081.225342,391.917206 
	C2067.935791,371.043884 2054.372559,350.344666 2040.879883,329.600922 
	C2040.524292,329.054230 2040.021606,328.603180 2039.194946,327.659210 
	C2033.666504,336.072937 2028.232178,344.298279 2022.844116,352.553772 
	C2014.089600,365.967377 2005.423462,379.439484 1996.530518,392.760376 
	C1995.718872,393.976044 1993.578491,394.754211 1991.978394,394.901428 
	C1988.507080,395.220795 1984.986206,394.999969 1980.988281,395.000000 
z"/>
<path fill="#C6021A" opacity="1.000000" stroke="none" 
	d="
M128.150269,162.013870 
	C126.787476,160.208771 125.672310,158.127380 124.019417,156.645966 
	C116.497757,149.904724 108.563202,143.605026 101.281784,136.620422 
	C94.375359,129.995514 89.696815,121.819244 87.261536,112.112923 
	C83.741341,103.957680 89.159859,93.366936 97.140244,88.989410 
	C97.846382,88.602066 98.688843,88.416389 99.314629,87.936897 
	C103.829666,84.477394 106.941811,85.343559 111.262848,89.426620 
	C124.874634,102.288704 139.249924,114.340172 153.249893,126.795090 
	C161.012314,133.700836 168.553680,140.854828 176.304047,147.774429 
	C190.902252,160.807831 205.607773,173.720993 220.212357,186.747299 
	C227.717743,193.441589 235.050568,200.329254 242.551453,207.028702 
	C257.395355,220.286499 272.318420,233.455643 287.175171,246.699127 
	C294.185791,252.948456 301.109039,259.295654 308.089844,265.578613 
	C314.575806,271.416199 320.863495,277.503571 327.653839,282.964508 
	C333.284241,287.492615 339.718781,287.282074 345.185883,283.001709 
	C354.361969,275.817505 362.786255,267.674316 371.543213,259.953156 
	C385.473846,247.670242 399.433685,235.420425 413.349335,223.120590 
	C419.887604,217.341568 426.316528,211.438812 432.856659,205.661972 
	C446.651733,193.476959 460.504303,181.357040 474.299133,169.171722 
	C480.839111,163.394806 487.270966,157.495499 493.803772,151.710327 
	C507.956757,139.177017 522.151672,126.691071 536.313049,114.167183 
	C545.308472,106.211929 554.321655,98.275642 563.236328,90.230469 
	C568.832520,85.180038 571.266785,85.014534 577.335510,89.873344 
	C582.636169,94.117157 586.418335,99.347862 586.869141,106.313385 
	C586.972046,107.903954 585.684326,109.584541 585.116943,111.623497 
	C580.927002,126.932396 571.570679,138.151001 559.829712,147.849442 
	C554.521118,152.234451 549.915344,157.470230 544.611389,162.782196 
	C531.159912,174.878174 518.087708,186.511963 504.666443,198.108307 
	C501.737976,200.066818 499.060059,201.948914 496.597137,204.079514 
	C488.497314,211.086563 480.355316,218.053207 472.478516,225.305817 
	C468.962891,228.542831 466.040741,232.424438 462.535034,236.132935 
	C460.693207,237.455246 459.088562,238.573212 457.652313,239.876755 
	C453.131927,243.979721 448.760406,248.249802 444.176758,252.279449 
	C431.239532,263.652863 418.202179,274.912354 405.248260,286.266876 
	C393.885742,296.226410 382.976105,306.750122 371.151031,316.121979 
	C357.280304,327.115143 341.218292,330.042847 323.788361,326.455505 
	C310.812775,323.784943 300.818787,316.347595 291.319611,307.823303 
	C275.407593,293.544342 259.462799,279.301941 243.545456,265.028900 
	C232.402206,255.036804 221.281708,245.019348 210.067871,234.672150 
	C209.663803,233.762497 209.464249,233.058990 209.004166,232.645203 
	C199.313538,223.929794 189.648209,215.184769 179.851746,206.589310 
	C176.050476,203.254105 171.939835,200.271545 167.657883,196.994675 
	C154.280518,185.245300 141.215393,173.629593 128.150269,162.013870 
z"/>
<path fill="#323232" opacity="1.000000" stroke="none" 
	d="
M1356.000000,373.999878 
	C1356.000000,276.215210 1356.000000,178.930542 1356.000000,81.322998 
	C1375.590210,81.322998 1394.986328,81.322998 1414.691895,81.322998 
	C1414.691895,185.603165 1414.691895,289.978333 1414.691895,394.676880 
	C1395.409912,394.676880 1376.013916,394.676880 1356.000000,394.676880 
	C1356.000000,388.026154 1356.000000,381.263000 1356.000000,373.999878 
z"/>
<path fill="#C6021A" opacity="1.000000" stroke="none" 
	d="
M261.350708,114.755386 
	C265.639404,118.345306 269.716766,121.638771 273.604889,125.142242 
	C291.232666,141.026047 308.793884,156.983688 326.413239,172.876923 
	C329.460327,175.625488 332.672150,178.191483 336.225220,181.194519 
	C340.762268,177.334839 345.554688,173.423569 350.163055,169.306274 
	C363.549347,157.346405 376.828156,145.266159 390.213623,133.305359 
	C401.738495,123.007126 413.453308,112.919655 424.897186,102.533020 
	C435.730286,92.700745 447.262512,84.254501 462.039307,81.443810 
	C463.002014,81.260689 463.977600,81.020676 464.947571,81.019051 
	C480.749939,80.992546 496.552368,81.000275 513.566711,81.000275 
	C508.208313,85.966827 503.666077,90.335625 498.951813,94.510139 
	C491.456146,101.147545 483.826569,107.633392 476.288116,114.222809 
	C462.806061,126.007523 449.315643,137.783066 435.896393,149.639038 
	C428.734161,155.966858 421.775055,162.524506 414.615540,168.855484 
	C401.076996,180.827377 387.453369,192.702988 373.878693,204.634079 
	C368.074280,209.735718 362.280304,214.849701 356.524475,220.005966 
	C349.901642,225.938873 343.326263,231.924759 336.438904,238.151062 
	C326.376038,229.026749 316.438110,219.951950 306.429779,210.955444 
	C290.515564,196.650162 274.558472,182.392548 258.611511,168.123703 
	C249.291168,159.784149 239.946976,151.471268 230.628265,143.129898 
	C214.560059,128.746841 198.519669,114.332672 182.434097,99.969070 
	C175.695419,93.951752 168.871246,88.030151 161.242249,81.323326 
	C163.752045,81.169205 165.129684,81.013100 166.507538,81.011124 
	C179.504852,80.992424 192.513504,80.661743 205.496353,81.095482 
	C218.382080,81.525978 229.785034,86.312973 239.440689,94.959755 
	C246.684708,101.446877 253.851242,108.020523 261.350708,114.755386 
z"/>
<path fill="#323232" opacity="1.000000" stroke="none" 
	d="
M1321.000000,227.000000 
	C1321.000000,283.123749 1321.000000,338.747528 1321.000000,394.685486 
	C1301.393799,394.685486 1281.999390,394.685486 1262.301758,394.685486 
	C1262.301758,320.049530 1262.301758,245.339508 1262.301758,170.314575 
	C1281.606079,170.314575 1301.000488,170.314575 1321.000000,170.314575 
	C1321.000000,188.989929 1321.000000,207.744965 1321.000000,227.000000 
z"/>
<path fill="#323232" opacity="1.000000" stroke="none" 
	d="
M1257.000122,115.959854 
	C1258.927124,98.275803 1266.310181,86.553062 1284.044922,82.595390 
	C1302.515747,78.473404 1321.167358,89.481995 1325.129883,109.109283 
	C1328.619751,126.396446 1317.583130,144.623367 1299.687500,148.642609 
	C1281.645508,152.694702 1260.947510,143.047241 1257.975708,120.659569 
	C1257.785034,119.223206 1257.331421,117.821747 1257.000122,115.959854 
z"/>
<path fill="#FFFFFF" opacity="1.000000" stroke="none" 
	d="
M128.082733,162.479492 
	C141.215393,173.629593 154.280518,185.245300 167.671692,197.452515 
	C167.997726,263.612396 167.997726,329.180817 167.997726,394.733032 
	C280.624573,394.733032 392.656830,394.733032 505.015533,394.733032 
	C505.015533,329.026306 505.015533,263.586029 505.015533,198.145752 
	C518.087708,186.511963 531.159912,174.878174 544.540833,163.129059 
	C544.899719,164.676544 544.993530,166.339340 544.993652,168.002151 
	C545.000854,247.475037 544.976379,326.947937 545.018127,406.420807 
	C545.027466,424.244019 533.277588,435.065582 516.378601,435.051910 
	C396.086395,434.954498 275.794037,434.938141 155.501877,435.072998 
	C139.239517,435.091248 127.823944,422.432129 127.874046,407.360779 
	C128.144882,325.889618 128.010117,244.417130 128.082733,162.479492 
z"/>
<path fill="#FFFFFF" opacity="1.000000" stroke="none" 
	d="
M1612.984131,262.252930 
	C1619.499390,283.861633 1615.627930,302.715302 1600.416504,319.113861 
	C1587.732666,332.787750 1571.900879,338.599854 1553.651489,336.858765 
	C1537.875732,335.353699 1524.781860,327.820435 1515.115845,315.226074 
	C1507.344727,305.100708 1502.833496,293.446564 1503.063354,280.512970 
	C1503.452637,258.612640 1516.620239,237.447937 1538.544312,228.654633 
	C1546.126099,225.613770 1553.879761,223.483734 1561.772339,224.170563 
	C1584.125244,226.115753 1600.946777,236.852890 1610.832153,257.481873 
	C1611.531738,258.941803 1612.252563,260.391541 1612.984131,262.252930 
z"/>
<path fill="#FFFFFF" opacity="1.000000" stroke="none" 
	d="
M1155.306885,317.184875 
	C1143.410034,329.625549 1129.539917,337.025208 1112.348755,336.976807 
	C1092.354004,336.920502 1076.612183,328.083679 1065.597168,311.893311 
	C1047.550415,285.367462 1054.662842,251.058273 1081.579834,233.371979 
	C1102.488770,219.633362 1127.135986,220.591675 1147.636353,237.105881 
	C1159.449707,246.622086 1166.078613,258.824615 1168.073364,273.875763 
	C1170.161743,289.634735 1165.882446,303.337860 1156.093140,315.576904 
	C1155.804077,315.938171 1155.739624,316.479004 1155.306885,317.184875 
z"/>
<path fill="#323232" opacity="1.000000" stroke="none" 
	d="
M504.666443,198.108322 
	C505.015533,263.586029 505.015533,329.026306 505.015533,394.733032 
	C392.656830,394.733032 280.624573,394.733032 167.997726,394.733032 
	C167.997726,329.180817 167.997726,263.612396 167.983917,197.586151 
	C171.939835,200.271545 176.050476,203.254105 179.851746,206.589310 
	C189.648209,215.184769 199.313538,223.929794 209.004166,232.645203 
	C209.464249,233.058990 209.663803,233.762497 209.999939,235.138153 
	C210.015198,274.872772 210.015198,313.800262 210.015198,352.706451 
	C294.627838,352.706451 378.685364,352.706451 462.849274,352.706451 
	C462.849274,313.613281 462.849274,274.813385 462.849274,236.013504 
	C466.040741,232.424438 468.962891,228.542831 472.478516,225.305817 
	C480.355316,218.053207 488.497314,211.086563 496.597137,204.079514 
	C499.060059,201.948914 501.737976,200.066818 504.666443,198.108322 
z"/>
<path fill="#FFFFFF" opacity="1.000000" stroke="none" 
	d="
M462.535034,236.132935 
	C462.849274,274.813385 462.849274,313.613281 462.849274,352.706451 
	C378.685364,352.706451 294.627838,352.706451 210.015198,352.706451 
	C210.015198,313.800262 210.015198,274.872772 210.083130,235.479233 
	C221.281708,245.019348 232.402206,255.036804 243.545456,265.028900 
	C259.462799,279.301941 275.407593,293.544342 291.319611,307.823303 
	C300.818787,316.347595 310.812775,323.784943 323.788361,326.455505 
	C341.218292,330.042847 357.280304,327.115143 371.151031,316.121979 
	C382.976105,306.750122 393.885742,296.226410 405.248260,286.266876 
	C418.202179,274.912354 431.239532,263.652863 444.176758,252.279449 
	C448.760406,248.249802 453.131927,243.979721 457.652313,239.876755 
	C459.088562,238.573212 460.693207,237.455246 462.535034,236.132935 
z"/>
</svg>